<svg width="1200" height="675" viewBox="0 0 1200 675" xmlns="http://www.w3.org/2000/svg">
  <defs>
    <linearGradient id="bg" x1="0" y1="0" x2="1200" y2="675" gradientUnits="userSpaceOnUse">
      <stop offset="0" stop-color="#f0fdfa"/>
      <stop offset="0.55" stop-color="#ffffff"/>
      <stop offset="1" stop-color="#ccfbf1"/>
    </linearGradient>
    <linearGradient id="line" x1="0" y1="0" x2="1" y2="1">
      <stop offset="0" stop-color="#0d9488" stop-opacity="0.75"/>
      <stop offset="1" stop-color="#2dd4bf" stop-opacity="0.30"/>
    </linearGradient>
    <pattern id="dots" width="22" height="22" patternUnits="userSpaceOnUse">
      <circle cx="2" cy="2" r="1.2" fill="#0d9488" opacity="0.09"/>
    </pattern>
    <radialGradient id="haptenGlow" cx="50%" cy="50%" r="50%">
      <stop offset="0" stop-color="#f59e0b" stop-opacity="0.42"/>
      <stop offset="1" stop-color="#f59e0b" stop-opacity="0"/>
    </radialGradient>
    <filter id="soft">
      <feGaussianBlur stdDeviation="6" result="b"/>
      <feMerge>
        <feMergeNode in="b"/>
        <feMergeNode in="SourceGraphic"/>
      </feMerge>
    </filter>
  </defs>

  <rect width="1200" height="675" fill="url(#bg)"/>
  <rect width="1200" height="675" fill="url(#dots)"/>

  <g opacity="0.55" fill="none" stroke="url(#line)" stroke-width="6" stroke-linecap="round" stroke-linejoin="round" filter="url(#soft)">
    <path d="M190 500 C 330 410, 430 560, 575 470 S 805 305, 940 360 S 1030 470, 1070 420"/>
    <path d="M230 285 C 370 220, 470 350, 620 290 S 820 215, 1015 265" stroke-width="4" opacity="0.82"/>
  </g>

  <g fill="#0d9488" opacity="0.22">
    <circle cx="575" cy="470" r="12"/>
    <circle cx="940" cy="360" r="9"/>
    <circle cx="620" cy="290" r="10"/>
  </g>

  <circle cx="708" cy="360" r="72" fill="url(#haptenGlow)" filter="url(#soft)"/>
  <circle cx="708" cy="360" r="10" fill="#f59e0b" opacity="0.70"/>
  <circle cx="680" cy="338" r="6" fill="#fbbf24" opacity="0.75"/>
  <circle cx="740" cy="338" r="6" fill="#fbbf24" opacity="0.75"/>
  <path d="M648 387 C 680 340, 740 332, 778 362"
        fill="none" stroke="#f59e0b" stroke-width="3"
        stroke-linecap="round" stroke-dasharray="8 7" opacity="0.45"/>

  <circle cx="845" cy="308" r="14" fill="#7c3aed" opacity="0.18" filter="url(#soft)"/>
  <circle cx="845" cy="308" r="7" fill="#7c3aed" opacity="0.45"/>

  <path d="M718 355 C 760 340, 795 324, 838 309"
        fill="none" stroke="#7c3aed" stroke-width="2.5"
        stroke-linecap="round" stroke-dasharray="8 6" opacity="0.30"/>

  <g font-family="Inter, -apple-system, BlinkMacSystemFont, 'Segoe UI', Roboto, sans-serif">
    <text x="40" y="72" font-size="14" fill="#0f766e" font-weight="800" letter-spacing="2" opacity="0.9">CASE STUDY</text>
    <text x="40" y="118" font-size="34" fill="#111827" font-weight="750">Fentanyl Hapten</text>
    <text x="40" y="158" font-size="24" fill="#7c3aed" font-weight="700" opacity="0.75">Virtual Affinity Maturation</text>
    <text x="40" y="188" font-size="13" fill="#6b7280" font-weight="500">Pocket-focused optimization on a customer-derived half-hapten binder</text>
  </g>
</svg>