<svg width="1440" height="600" viewBox="0 0 1440 600" xmlns="http://www.w3.org/2000/svg">
  <defs>
    <linearGradient id="bg-grad" x1="0%" y1="0%" x2="100%" y2="100%">
      <stop offset="0%" stop-color="#f0fdfa" />
      <stop offset="100%" stop-color="#ccfbf1" />
    </linearGradient>
    <pattern id="hex-grid" x="0" y="0" width="60" height="104" patternUnits="userSpaceOnUse">
      <path d="M30 0 L60 17.32 L60 51.96 L30 69.28 L0 51.96 L0 17.32 Z" fill="none" stroke="#0d9488" stroke-width="1.2" opacity="0.14"/>
    </pattern>
    <filter id="glow">
      <feGaussianBlur stdDeviation="2.5" result="coloredBlur"/>
      <feMerge>
        <feMergeNode in="coloredBlur"/>
        <feMergeNode in="SourceGraphic"/>
      </feMerge>
    </filter>
  </defs>
  
  <!-- Background -->
  <rect width="100%" height="100%" fill="url(#bg-grad)" />
  <rect width="100%" height="100%" fill="url(#hex-grid)" />
  
  <!-- Abstract Connections -->
  <g stroke="#0d9488" stroke-width="2" opacity="0.35" fill="none">
    <path d="M-100 500 Q 400 200 900 500 T 1540 300" />
    <path d="M-100 400 Q 500 600 1000 300 T 1540 400" />
    <path d="M-100 300 Q 300 100 800 400 T 1540 200" />
  </g>

  <!-- Floating Nodes (Abstract Nanobodies) -->
  <g fill="#0d9488" opacity="0.22">
    <circle cx="10%" cy="20%" r="40" />
    <circle cx="85%" cy="15%" r="60" />
    <circle cx="50%" cy="80%" r="30" />
    <circle cx="90%" cy="85%" r="20" />
    <circle cx="5%" cy="70%" r="25" />
  </g>
  
  <!-- Tech Accents -->
  <g fill="#0f766e" opacity="0.6">
    <circle cx="400" cy="200" r="3" />
    <circle cx="900" cy="500" r="3" />
    <circle cx="1000" cy="300" r="3" />
    <circle cx="800" cy="400" r="3" />
  </g>
</svg>